<svg xmlns="http://www.w3.org/2000/svg" focusable="false" viewBox="0 0 24 24" aria-hidden="true"><path d="M9.93103448,15.9202016 C9.16621652,14.7082567 7.81823107,13.9034483 6.28297027,13.9034483 C4.4780462,13.9034483 2.93186652,15.0157676 2.28798344,16.5945005 L0.993103448,24 L7.62963222,21.3612512 L7.62963222,19.7514683 C7.62963222,18.089548 8.56236933,16.6463058 9.93103448,15.9202016" id="Fill-4" fill="#3FB497" fill-rule="nonzero"></path><path d="M9.92374663,15.8896552 C8.54999596,16.6223703 7.6137931,18.0787527 7.6137931,19.7558042 L7.6137931,21.3802437 C8.54866755,21.7785203 9.54863449,22.0518015 10.5931034,22.1793103 L10.5931034,18.2248601 C10.5931034,17.3661441 10.3476782,16.5652343 9.92374663,15.8896552" id="Fill-5" fill="#152F3A" fill-rule="nonzero"></path><path d="M10.6162136,18.1954692 L10.6162136,22.0986049 C11.0698834,22.1518572 11.5317121,22.1793103 12,22.1793103 C12.4682879,22.1793103 12.9301166,22.1518572 13.3836164,22.0986049 L13.3836164,18.1954692 C13.3836164,17.3478962 13.6348431,16.5573793 14.0689655,15.8905668 C13.4512675,15.5728716 12.7472209,15.3931034 12,15.3931034 C11.2527791,15.3931034 10.5485626,15.5728716 9.93103448,15.8905668 C10.3649869,16.5573793 10.6162136,17.3478962 10.6162136,18.1954692" id="Fill-6" fill="#6E629C" fill-rule="nonzero"></path><path d="M13.4068966,18.2248601 L13.4068966,22.1793103 C14.4513655,22.0518015 15.4513325,21.7785203 16.3862069,21.3802437 L16.3862069,19.7558042 C16.3862069,18.0787527 15.450004,16.6223703 14.0764194,15.8896552 C13.6523218,16.5652343 13.4068966,17.3661441 13.4068966,18.2248601" id="Fill-7" fill="#B49A5C" fill-rule="nonzero"></path><path d="M14.0689655,15.9176252 C15.4618627,16.6428019 16.4112285,18.0842004 16.4112285,19.7439977 L16.4112285,21.3517241 C18.7113947,20.3955456 20.6232605,18.7108738 21.8482759,16.5910628 C21.1927453,15.0143466 19.6191689,13.9034483 17.7820669,13.9034483 C16.2192673,13.9034483 14.8474186,14.7072286 14.0689655,15.9176252" id="Fill-8" fill="#EFC826" fill-rule="nonzero"></path><path d="M21.1685322,13.5333366 C21.6857328,13.9120442 22.1378463,14.3726838 22.5058959,14.8963862 C22.937368,13.71458 23.1724138,12.4390899 23.1724138,11.1091441 C23.1724138,4.97368285 18.1703672,0 12.0000832,0 C5.82963283,0 0.827586207,4.97368285 0.827586207,11.1091441 C0.827586207,12.4390899 1.06263196,13.71458 1.49410405,14.8965517 C1.86215374,14.3726838 2.3144337,13.9120442 2.83146777,13.5333366 C2.62505366,12.7598659 2.51452223,11.9471672 2.51452223,11.1091441 C2.51452223,5.90009314 6.76132623,1.67737036 12.0000832,1.67737036 C17.2386738,1.67737036 21.4854778,5.90009314 21.4854778,11.1091441 C21.4854778,11.9471672 21.3749463,12.7597004 21.1685322,13.5333366" id="Fill-9" fill="#DD4564" fill-rule="nonzero"></path><rect id="Right" fill-opacity="0" fill="#D8D8D8" x="23.1724138" y="0" width="1" height="24"></rect><path d="M17.7931034,12.2482759 C18.8444276,12.2482759 19.6965517,11.3960247 19.6965517,10.3447457 C19.6965517,9.2936305 18.8444276,8.44137931 17.7931034,8.44137931 C16.7417793,8.44137931 15.8896552,9.2936305 15.8896552,10.3447457 C15.8896552,11.3960247 16.7417793,12.2482759 17.7931034,12.2482759" id="Fill-10" fill="#EFC826" fill-rule="nonzero"></path><path d="M12,13.9034483 C13.0511604,13.9034483 13.9034483,13.0513241 13.9034483,12 C13.9034483,10.9488396 13.0511604,10.0965517 12,10.0965517 C10.9486759,10.0965517 10.0965517,10.9488396 10.0965517,12 C10.0965517,13.0513241 10.9486759,13.9034483 12,13.9034483" id="Fill-11" fill="#6E629C" fill-rule="nonzero"></path><rect id="Left" fill-opacity="0" fill="#D8D8D8" x="0" y="0" width="1" height="24"></rect><path d="M6.37249563,12.2482759 C7.42377456,12.2482759 8.27586207,11.3960247 8.27586207,10.3447457 C8.27586207,9.2936305 7.42377456,8.44137931 6.37249563,8.44137931 C5.3212167,8.44137931 4.46896552,9.2936305 4.46896552,10.3447457 C4.46896552,11.3960247 5.3212167,12.2482759 6.37249563,12.2482759" id="Fill-12" fill="#3FB497" fill-rule="nonzero"></path></svg>

